<?xml version="1.0" encoding="UTF-8" standalone="no"?>
<!-- Created with Inkscape (http://www.inkscape.org/) -->

<svg
   version="1.1"
   id="svg1"
   width="32"
   height="22.419334"
   viewBox="0 0 32.000001 22.419335"
   sodipodi:docname="youtime-32.svg"
   xml:space="preserve"
   inkscape:version="1.4.1-rc (832c77b156, 2025-02-28)"
   xmlns:inkscape="http://www.inkscape.org/namespaces/inkscape"
   xmlns:sodipodi="http://sodipodi.sourceforge.net/DTD/sodipodi-0.dtd"
   xmlns="http://www.w3.org/2000/svg"
   xmlns:svg="http://www.w3.org/2000/svg"><defs
     id="defs1" /><sodipodi:namedview
     id="namedview1"
     pagecolor="#505050"
     bordercolor="#eeeeee"
     borderopacity="1"
     inkscape:showpageshadow="0"
     inkscape:pageopacity="0"
     inkscape:pagecheckerboard="0"
     inkscape:deskcolor="#505050"
     inkscape:zoom="19.570312"
     inkscape:cx="20.209182"
     inkscape:cy="17.807585"
     inkscape:window-width="1858"
     inkscape:window-height="1011"
     inkscape:window-x="0"
     inkscape:window-y="0"
     inkscape:window-maximized="1"
     inkscape:current-layer="g1" /><g
     inkscape:groupmode="layer"
     inkscape:label="Image"
     id="g1"><g
       id="g509"
       transform="matrix(0.04673629,0,0,0.04673629,0.02906132,-4.7553646)"><path
         style="fill:#fea0a0"
         d="m 318.41996,580.33495 c 13.43098,-0.21767 35.03098,-0.21731 48,7.9e-4 12.96903,0.2181 1.98005,0.39619 -24.41995,0.39575 -26.4,-4.3e-4 -37.01102,-0.17888 -23.58005,-0.39654 z m -83.41995,-1.30622 c 2.75,-0.28766 7.25,-0.28766 10,0 2.75,0.28766 0.5,0.52301 -5,0.52301 -5.5,0 -7.75,-0.23535 -5,-0.52301 z m 205.33334,0 c 2.75,-0.28766 7.25,-0.28766 10,0 2.75,0.28766 0.5,0.52301 -5,0.52301 -5.5,0 -7.75,-0.23535 -5,-0.52301 z m -243.3178,-1.30506 c 1.65855,-0.31892 4.05855,-0.30682 5.33333,0.0269 1.27479,0.33372 -0.0822,0.59466 -3.01554,0.57986 -2.93333,-0.0148 -3.97634,-0.28785 -2.31779,-0.60677 z m 284.66946,-0.0138 c 2.02675,-0.30647 5.02675,-0.29828 6.66667,0.0182 1.63992,0.31648 -0.0183,0.56723 -3.685,0.55722 -3.66667,-0.01 -5.00842,-0.26895 -2.98167,-0.57542 z m -313.35167,-1.29566 c 1.28333,-0.33537 3.38333,-0.33537 4.66667,0 1.28333,0.33537 0.23333,0.60976 -2.33334,0.60976 -2.56666,0 -3.61667,-0.27439 -2.33333,-0.60976 z m 344.68222,-0.0239 c 1.65855,-0.31893 4.05855,-0.30682 5.33333,0.0269 1.27479,0.33373 -0.0822,0.59467 -3.01554,0.57987 -2.93333,-0.0148 -3.97634,-0.28785 -2.31779,-0.60677 z M 147.02538,575.076 c 1.29729,-0.33806 3.09729,-0.31583 4,0.0494 0.90271,0.36524 -0.15871,0.64183 -2.35871,0.61466 -2.2,-0.0272 -2.93858,-0.326 -1.64129,-0.66406 z m 389.33335,0 c 1.29729,-0.33806 3.09729,-0.31583 4,0.0494 0.90271,0.36524 -0.15871,0.64183 -2.35871,0.61466 -2.2,-0.0272 -2.93858,-0.326 -1.64129,-0.66406 z M 129,573.78364 c 0.91667,-0.36988 2.41667,-0.36988 3.33334,0 0.91666,0.36989 0.16666,0.67252 -1.66667,0.67252 -1.83333,0 -2.58333,-0.30263 -1.66667,-0.67252 z m 425.41668,-0.0278 c 0.9625,-0.38517 2.1125,-0.3378 2.55556,0.10526 0.44305,0.44305 -0.34445,0.75819 -1.75,0.70029 -1.55326,-0.064 -1.8692,-0.37992 -0.80556,-0.80555 z M 114.41667,572.4225 c 0.9625,-0.38516 2.1125,-0.33779 2.55556,0.10526 0.44305,0.44306 -0.34445,0.75819 -1.75,0.7003 -1.55326,-0.064 -1.8692,-0.37992 -0.80556,-0.80556 z m 454.66668,0 c 0.9625,-0.38516 2.1125,-0.33779 2.55556,0.10526 0.44305,0.44306 -0.34445,0.75819 -1.75,0.7003 -1.55326,-0.064 -1.8692,-0.37992 -0.80556,-0.80556 z m -466.66668,-1.3333 c 0.9625,-0.38516 2.1125,-0.33779 2.55556,0.10526 0.44305,0.44306 -0.34445,0.75819 -1.75,0.70029 -1.55326,-0.064 -1.8692,-0.37992 -0.80556,-0.80555 z m 478.66668,0 c 0.9625,-0.38516 2.1125,-0.33779 2.55556,0.10526 0.44305,0.44306 -0.34445,0.75819 -1.75,0.70029 -1.55326,-0.064 -1.8692,-0.37992 -0.80556,-0.80555 z m -545.833894,-27.42252 -3.916122,-4.33333 4.333334,3.91612 c 4.039274,3.65038 4.946202,4.75055 3.916121,4.75055 -0.229466,0 -2.179466,-1.95 -4.333333,-4.33334 z M 674.77195,471.22224 c 0.064,-1.55326 0.37992,-1.8692 0.80556,-0.80556 0.38516,0.9625 0.33779,2.1125 -0.10527,2.55556 -0.44305,0.44305 -0.75818,-0.34445 -0.70029,-1.75 z m 1.33333,-10.66667 c 0.064,-1.55326 0.37992,-1.8692 0.80556,-0.80556 0.38516,0.9625 0.33779,2.1125 -0.10526,2.55556 -0.44306,0.44305 -0.75819,-0.34445 -0.7003,-1.75 z M 4.1052633,447.22224 c 0.063979,-1.55326 0.3799204,-1.8692 0.8055556,-0.80556 0.3851608,0.9625 0.3377924,2.1125 -0.1052632,2.55556 -0.4430556,0.44305 -0.7581872,-0.34445 -0.7002924,-1.75 z m 673.3333567,0 c 0.064,-1.55326 0.37992,-1.8692 0.80555,-0.80556 0.38516,0.9625 0.33779,2.1125 -0.10526,2.55556 -0.44306,0.44305 -0.75819,-0.34445 -0.70029,-1.75 z M 2.8771931,432.00001 c 0,-1.83333 0.3026316,-2.58333 0.6725146,-1.66666 0.3698831,0.91666 0.3698831,2.41666 0,3.33333 -0.369883,0.91667 -0.6725146,0.16667 -0.6725146,-1.66667 z m 676.0000169,0 c 0,-1.83333 0.30263,-2.58333 0.67252,-1.66666 0.36988,0.91666 0.36988,2.41666 0,3.33333 -0.36989,0.91667 -0.67252,0.16667 -0.67252,-1.66667 z M 1.593265,411.33335 c 0.027173,-2.2 0.3259981,-2.93859 0.664056,-1.6413 0.3380579,1.29729 0.3158255,3.09729 -0.049405,4 -0.3652308,0.90271 -0.6418236,-0.1587 -0.614651,-2.3587 z m 678.666685,0 c 0.0272,-2.2 0.326,-2.93859 0.66406,-1.6413 0.33806,1.29729 0.31582,3.09729 -0.0494,4 -0.36523,0.90271 -0.64182,-0.1587 -0.61465,-2.3587 z M 0.36315215,382.66668 c 0,-3.3 0.26002135,-4.65 0.57782522,-3 0.31780383,1.65 0.31780383,4.35 0,6 -0.31780387,1.65 -0.57782522,0.3 -0.57782522,-3 z m 681.33335785,0 c 0,-3.3 0.26002,-4.65 0.57782,-3 0.3178,1.65 0.3178,4.35 0,6 -0.3178,1.65 -0.57782,0.3 -0.57782,-3 z M 0.36315215,301.33334 c 0,-3.3 0.26002135,-4.65 0.57782522,-3 0.31780383,1.65 0.31780383,4.35 0,6 -0.31780387,1.65 -0.57782522,0.3 -0.57782522,-3 z m 681.33335785,-4 c 0,-3.3 0.26002,-4.65 0.57782,-3 0.3178,1.65 0.3178,4.35 0,6 -0.3178,1.65 -0.57782,0.3 -0.57782,-3 z M 1.593265,272.66667 c 0.027173,-2.2 0.3259981,-2.93858 0.664056,-1.64129 0.3380579,1.29729 0.3158255,3.09729 -0.049405,4 -0.3652308,0.90271 -0.6418236,-0.15871 -0.614651,-2.35871 z m 678.666685,-4 c 0.0272,-2.2 0.326,-2.93858 0.66406,-1.64129 0.33806,1.29729 0.31582,3.09729 -0.0494,4 -0.36523,0.90271 -0.64182,-0.15871 -0.61465,-2.35871 z M 2.8771931,252.00001 c 0,-1.83334 0.3026316,-2.58334 0.6725146,-1.66667 0.3698831,0.91667 0.3698831,2.41667 0,3.33333 -0.369883,0.91667 -0.6725146,0.16667 -0.6725146,-1.66666 z M 678.87721,249.33334 c 0,-1.83333 0.30263,-2.58333 0.67252,-1.66667 0.36988,0.91667 0.36988,2.41667 0,3.33334 -0.36989,0.91666 -0.67252,0.16666 -0.67252,-1.66667 z M 4.2105264,236.00001 c 0,-1.83334 0.3026316,-2.58334 0.6725147,-1.66667 0.369883,0.91667 0.369883,2.41667 0,3.33333 -0.3698831,0.91667 -0.6725147,0.16667 -0.6725147,-1.66666 z M 677.43862,233.8889 c 0.064,-1.55326 0.37992,-1.8692 0.80555,-0.80556 0.38516,0.9625 0.33779,2.1125 -0.10526,2.55556 -0.44306,0.44305 -0.75819,-0.34445 -0.70029,-1.75 z M 5.4385967,223.22223 c 0.063979,-1.55326 0.3799204,-1.8692 0.8055555,-0.80556 0.3851609,0.9625 0.3377924,2.1125 -0.1052631,2.55556 -0.4430556,0.44305 -0.7581872,-0.34445 -0.7002924,-1.75 z M 676.10528,221.8889 c 0.064,-1.55326 0.37992,-1.8692 0.80556,-0.80556 0.38516,0.9625 0.33779,2.1125 -0.10526,2.55556 -0.44306,0.44305 -0.75819,-0.34445 -0.7003,-1.75 z M 6.77193,212.55556 c 0.063979,-1.55326 0.3799204,-1.8692 0.8055556,-0.80555 0.3851608,0.9625 0.3377924,2.1125 -0.1052632,2.55555 -0.4430555,0.44306 -0.7581871,-0.34444 -0.7002924,-1.75 z m 1.3333334,-9.33333 c 0.063979,-1.55326 0.3799204,-1.8692 0.8055556,-0.80556 0.3851608,0.9625 0.3377924,2.1125 -0.1052632,2.55556 -0.4430556,0.44305 -0.7581871,-0.34445 -0.7002924,-1.75 z M 105.08334,111.08918 c 0.9625,-0.38516 2.1125,-0.33779 2.55555,0.10527 0.44306,0.44305 -0.34444,0.75818 -1.75,0.70029 -1.55326,-0.064 -1.8692,-0.37992 -0.80555,-0.80556 z m 468.00001,0 c 0.9625,-0.38516 2.1125,-0.33779 2.55556,0.10527 0.44305,0.44305 -0.34445,0.75818 -1.75,0.70029 -1.55326,-0.064 -1.8692,-0.37992 -0.80556,-0.80556 z m -454.66668,-1.33333 c 0.9625,-0.38516 2.1125,-0.33779 2.55556,0.10526 0.44305,0.44306 -0.34445,0.75819 -1.75,0.7003 -1.55326,-0.064 -1.8692,-0.37992 -0.80556,-0.80556 z m 441.33335,0 c 0.9625,-0.38516 2.1125,-0.33779 2.55555,0.10526 0.44306,0.44306 -0.34444,0.75819 -1.75,0.7003 -1.55326,-0.064 -1.8692,-0.37992 -0.80555,-0.80556 z M 133,108.4503 c 0.91667,-0.36989 2.41667,-0.36989 3.33334,0 0.91666,0.36988 0.16666,0.67251 -1.66667,0.67251 -1.83333,0 -2.58333,-0.30263 -1.66667,-0.67251 z m 409.33335,0 c 0.91667,-0.36989 2.41667,-0.36989 3.33333,0 0.91667,0.36988 0.16667,0.67251 -1.66666,0.67251 -1.83334,0 -2.58334,-0.30263 -1.66667,-0.67251 z m -388.6413,-1.37428 c 1.29729,-0.33806 3.09729,-0.31583 4,0.0494 0.90271,0.36523 -0.15871,0.64182 -2.35871,0.61465 -2.2,-0.0272 -2.93858,-0.326 -1.64129,-0.66405 z m 369.33334,0 c 1.29729,-0.33806 3.09729,-0.31583 4,0.0494 0.90271,0.36523 -0.15871,0.64182 -2.35871,0.61465 -2.2,-0.0272 -2.93858,-0.326 -1.64129,-0.66405 z m -344.67651,-1.35236 c 1.65855,-0.31893 4.05855,-0.30682 5.33334,0.0269 1.27478,0.33373 -0.0822,0.59466 -3.01555,0.57987 -2.93333,-0.0148 -3.97634,-0.28785 -2.31779,-0.60677 z m 318.66668,0 c 1.65855,-0.31893 4.05855,-0.30682 5.33333,0.0269 1.27479,0.33373 -0.0822,0.59466 -3.01554,0.57987 -2.93334,-0.0148 -3.97634,-0.28785 -2.31779,-0.60677 z m -284.66389,-1.3471 c 2.02675,-0.30647 5.02675,-0.29828 6.66667,0.0182 1.63992,0.31648 -0.0183,0.56723 -3.685,0.55722 -3.66667,-0.01 -5.00842,-0.26895 -2.98167,-0.57542 z m 250.64834,0.002 c 2.01667,-0.3055 5.31667,-0.3055 7.33334,0 2.01666,0.3055 0.36666,0.55545 -3.66667,0.55545 -4.03333,0 -5.68333,-0.24995 -3.66667,-0.55545 z m -201.96476,-1.35632 c 3.13605,-0.28166 7.93605,-0.2777 10.66667,0.009 2.73061,0.28651 0.16475,0.51696 -5.70191,0.51211 -5.86667,-0.005 -8.10081,-0.23925 -4.96476,-0.52091 z m 149.33334,0 c 3.13605,-0.28166 7.93605,-0.2777 10.66667,0.009 2.73061,0.28651 0.16475,0.51696 -5.70191,0.51211 -5.86667,-0.005 -8.10081,-0.23925 -4.96476,-0.52091 z"
         id="path511" /><path
         style="fill:#fe5e5e"
         d="m 252.97027,579.03771 c 2.36698,-0.29455 6.56698,-0.29939 9.33333,-0.0108 2.76636,0.28864 0.82974,0.52963 -4.30359,0.53555 -5.13334,0.006 -7.39672,-0.23024 -5.02974,-0.52479 z m 168.69641,-0.009 c 2.75,-0.28766 7.25,-0.28766 10,0 2.75,0.28766 0.5,0.52301 -5,0.52301 -5.5,0 -7.75,-0.23535 -5,-0.52301 z m -214.66667,-1.31705 c 2.01666,-0.3055 5.31666,-0.3055 7.33333,0 2.01667,0.3055 0.36667,0.55545 -3.66667,0.55545 -4.03333,0 -5.68333,-0.24995 -3.66666,-0.55545 z m 262.685,-0.002 c 2.02675,-0.30647 5.02675,-0.29828 6.66667,0.0182 1.63992,0.31648 -0.0183,0.56723 -3.685,0.55722 -3.66667,-0.01 -5.00842,-0.26895 -2.98167,-0.57542 z M 176.33334,576.414 c 1.28333,-0.33537 3.38333,-0.33537 4.66667,0 1.28333,0.33537 0.23333,0.60976 -2.33334,0.60976 -2.56666,0 -3.61666,-0.27439 -2.33333,-0.60976 z m 328.00001,0 c 1.28333,-0.33537 3.38333,-0.33537 4.66667,0 1.28333,0.33537 0.23333,0.60976 -2.33334,0.60976 -2.56666,0 -3.61667,-0.27439 -2.33333,-0.60976 z m -350.6413,-1.33822 c 1.29729,-0.33806 3.09729,-0.31583 4,0.0494 0.90271,0.36524 -0.15871,0.64183 -2.35871,0.61466 -2.2,-0.0272 -2.93858,-0.326 -1.64129,-0.66406 z m 376.00001,0 c 1.29729,-0.33806 3.09729,-0.31583 4,0.0494 0.90271,0.36524 -0.15871,0.64183 -2.35871,0.61466 -2.2,-0.0272 -2.93858,-0.326 -1.64129,-0.66406 z m -395.27539,-1.32016 c 0.9625,-0.38517 2.1125,-0.3378 2.55556,0.10526 0.44305,0.44305 -0.34445,0.75819 -1.75,0.70029 -1.55326,-0.064 -1.8692,-0.37992 -0.80556,-0.80555 z m 414.58335,0.0278 c 0.91666,-0.36988 2.41666,-0.36988 3.33333,0 0.91667,0.36989 0.16667,0.67252 -1.66667,0.67252 -1.83333,0 -2.58333,-0.30263 -1.66666,-0.67252 z m -430.66668,-1.33333 c 0.91666,-0.36988 2.41666,-0.36988 3.33333,0 0.91667,0.36988 0.16667,0.67251 -1.66667,0.67251 -1.83333,0 -2.58333,-0.30263 -1.66666,-0.67251 z m 446.75001,-0.0278 c 0.9625,-0.38516 2.1125,-0.33779 2.55556,0.10526 0.44305,0.44306 -0.34445,0.75819 -1.75,0.7003 -1.55326,-0.064 -1.8692,-0.37992 -0.80556,-0.80556 z M 106.41667,571.0892 c 0.9625,-0.38516 2.1125,-0.33779 2.55556,0.10526 0.44305,0.44306 -0.34445,0.75819 -1.75,0.70029 -1.55326,-0.064 -1.8692,-0.37992 -0.80556,-0.80555 z m 470.66668,0 c 0.9625,-0.38516 2.1125,-0.33779 2.55556,0.10526 0.44305,0.44306 -0.34445,0.75819 -1.75,0.70029 -1.55326,-0.064 -1.8692,-0.37992 -0.80556,-0.80555 z m 68.25,-26.42252 c 2.48771,-2.56666 4.82311,-4.66666 5.18978,-4.66666 0.36667,0 -1.36873,2.1 -3.85644,4.66666 -2.48772,2.56667 -4.82312,4.66667 -5.18978,4.66667 -0.36667,0 1.36873,-2.1 3.85644,-4.66667 z M 5.4385967,456.55557 c 0.063979,-1.55326 0.3799204,-1.8692 0.8055555,-0.80556 0.3851609,0.9625 0.3377924,2.1125 -0.1052631,2.55556 -0.4430556,0.44305 -0.7581872,-0.34445 -0.7002924,-1.75 z m 670.6666833,0 c 0.064,-1.55326 0.37992,-1.8692 0.80556,-0.80556 0.38516,0.9625 0.33779,2.1125 -0.10526,2.55556 -0.44306,0.44305 -0.75819,-0.34445 -0.7003,-1.75 z M 4.2105264,442.66668 c 0,-1.83333 0.3026316,-2.58333 0.6725147,-1.66667 0.369883,0.91667 0.369883,2.41667 0,3.33334 -0.3698831,0.91666 -0.6725147,0.16666 -0.6725147,-1.66667 z m 673.3333536,0 c 0,-1.83333 0.30263,-2.58333 0.67251,-1.66667 0.36989,0.91667 0.36989,2.41667 0,3.33334 -0.36988,0.91666 -0.67251,0.16666 -0.67251,-1.66667 z M 2.9265984,426.00001 c 0.027173,-2.2 0.3259981,-2.93858 0.664056,-1.64129 0.3380579,1.29729 0.3158255,3.09729 -0.049405,4 -0.3652308,0.90271 -0.6418236,-0.15871 -0.614651,-2.35871 z m 676.0000216,0 c 0.0272,-2.2 0.326,-2.93858 0.66405,-1.64129 0.33806,1.29729 0.31583,3.09729 -0.0494,4 -0.36523,0.90271 -0.64182,-0.15871 -0.61465,-2.35871 z m -677.2839497,-22 c 0,-2.56666 0.2743937,-3.61666 0.6097638,-2.33333 0.3353701,1.28333 0.3353701,3.38333 0,4.66667 -0.3353701,1.28333 -0.6097638,0.23333 -0.6097638,-2.33334 z m 678.6666897,0 c 0,-2.56666 0.27439,-3.61666 0.60976,-2.33333 0.33537,1.28333 0.33537,3.38333 0,4.66667 -0.33537,1.28333 -0.60976,0.23333 -0.60976,-2.33334 z M 0.42676554,369.33334 c 0,-4.76666 0.24199285,-6.71666 0.5377619,-4.33333 0.29576906,2.38333 0.29576906,6.28333 0,8.66667 -0.29576905,2.38333 -0.5377619,0.43333 -0.5377619,-4.33334 z m 681.33335446,0 c 0,-4.76666 0.24199,-6.71666 0.53776,-4.33333 0.29577,2.38333 0.29577,6.28333 0,8.66667 -0.29577,2.38333 -0.53776,0.43333 -0.53776,-4.33334 z M 0.42676554,314.66668 c 0,-4.76667 0.24199285,-6.71667 0.5377619,-4.33334 0.29576906,2.38334 0.29576906,6.28334 0,8.66667 -0.29576905,2.38333 -0.5377619,0.43333 -0.5377619,-4.33333 z M 681.77087,311.33334 c 0.006,-5.13333 0.24691,-7.06995 0.53555,-4.30359 0.28863,2.76635 0.28379,6.96635 -0.0108,9.33333 -0.29455,2.36698 -0.5307,0.1036 -0.52479,-5.02974 z M 1.6426703,280.00001 c 0,-2.56667 0.2743937,-3.61667 0.6097638,-2.33334 0.3353701,1.28334 0.3353701,3.38334 0,4.66667 -0.3353701,1.28334 -0.6097638,0.23334 -0.6097638,-2.33333 z m 678.6666897,-4 c 0,-2.56667 0.27439,-3.61667 0.60976,-2.33334 0.33537,1.28334 0.33537,3.38334 0,4.66667 -0.33537,1.28333 -0.60976,0.23333 -0.60976,-2.33333 z m -677.3827616,-18 c 0.027173,-2.2 0.3259981,-2.93858 0.664056,-1.64129 0.3380579,1.29729 0.3158255,3.09729 -0.049405,4 -0.3652308,0.90271 -0.6418236,-0.15871 -0.614651,-2.35871 z M 678.87721,254.66667 c 0,-1.83333 0.30263,-2.58333 0.67252,-1.66666 0.36988,0.91666 0.36988,2.41666 0,3.33333 -0.36989,0.91667 -0.67252,0.16667 -0.67252,-1.66667 z M 4.1052633,240.55556 c 0.063979,-1.55325 0.3799204,-1.8692 0.8055556,-0.80555 0.3851608,0.9625 0.3377924,2.1125 -0.1052632,2.55555 -0.4430556,0.44306 -0.7581872,-0.34444 -0.7002924,-1.75 z M 677.43862,237.8889 c 0.064,-1.55326 0.37992,-1.8692 0.80555,-0.80556 0.38516,0.9625 0.33779,2.1125 -0.10526,2.55556 -0.44306,0.44305 -0.75819,-0.34445 -0.70029,-1.75 z M 5.4385967,227.22223 c 0.063979,-1.55326 0.3799204,-1.8692 0.8055555,-0.80556 0.3851609,0.9625 0.3377924,2.1125 -0.1052631,2.55556 -0.4430556,0.44305 -0.7581872,-0.34445 -0.7002924,-1.75 z M 674.77195,213.8889 c 0.064,-1.55326 0.37992,-1.8692 0.80556,-0.80556 0.38516,0.9625 0.33779,2.1125 -0.10527,2.55556 -0.44305,0.44305 -0.75818,-0.34445 -0.70029,-1.75 z M 32.666668,142.66667 C 33.993983,141.2 35.379968,140 35.746635,140 c 0.366666,0 -0.419319,1.2 -1.746634,2.66667 -1.327315,1.46667 -2.7133,2.66667 -3.079967,2.66667 -0.366667,0 0.419319,-1.2 1.746634,-2.66667 z m 613.270612,-3 -5.27059,-5.66667 5.66666,5.2706 c 3.11667,2.89883 5.66667,5.44883 5.66667,5.66667 0,1.00877 -1.16113,-6.6e-4 -6.06274,-5.2706 z M 39.333335,136 c 1.327315,-1.46666 2.7133,-2.66666 3.079966,-2.66666 0.366667,0 -0.419318,1.2 -1.746633,2.66666 -1.327315,1.46667 -2.7133,2.66667 -3.079967,2.66667 -0.366667,0 0.419318,-1.2 1.746634,-2.66667 z m 69.750005,-24.91082 c 0.9625,-0.38516 2.1125,-0.33779 2.55555,0.10527 0.44306,0.44305 -0.34444,0.75818 -1.75,0.70029 -1.55326,-0.064 -1.8692,-0.37992 -0.80555,-0.80556 z m 460.00001,0 c 0.9625,-0.38516 2.1125,-0.33779 2.55556,0.10527 0.44305,0.44305 -0.34445,0.75818 -1.75,0.70029 -1.55326,-0.064 -1.8692,-0.37992 -0.80556,-0.80556 z m -446.75001,-1.30555 c 0.91666,-0.36988 2.41666,-0.36988 3.33333,0 0.91667,0.36988 0.16667,0.67251 -1.66667,0.67251 -1.83333,0 -2.58333,-0.30263 -1.66666,-0.67251 z m 432.00001,0 c 0.91667,-0.36988 2.41667,-0.36988 3.33333,0 0.91667,0.36988 0.16667,0.67251 -1.66666,0.67251 -1.83334,0 -2.58334,-0.30263 -1.66667,-0.67251 z m -415.30797,-1.37428 c 1.29729,-0.33806 3.09729,-0.31583 4,0.0494 0.90271,0.36524 -0.15871,0.64183 -2.35871,0.61465 -2.2,-0.0272 -2.93858,-0.32599 -1.64129,-0.66405 z m 397.97464,0.0409 c 0.91666,-0.36989 2.41666,-0.36989 3.33333,0 0.91667,0.36988 0.16667,0.67251 -1.66667,0.67251 -1.83333,0 -2.58333,-0.30263 -1.66666,-0.67251 z m -376.66668,-1.3694 c 1.28333,-0.33537 3.38333,-0.33537 4.66666,0 1.28334,0.33537 0.23334,0.60977 -2.33333,0.60977 -2.56667,0 -3.61667,-0.2744 -2.33333,-0.60977 z m 354.66668,0 c 1.28333,-0.33537 3.38333,-0.33537 4.66666,0 1.28334,0.33537 0.23334,0.60977 -2.33333,0.60977 -2.56667,0 -3.61667,-0.2744 -2.33333,-0.60977 z m -327.33335,-1.35521 c 1.65,-0.3178 4.35,-0.3178 6,0 1.65,0.31781 0.3,0.57783 -3,0.57783 -3.3,0 -4.65,-0.26002 -3,-0.57783 z m 300.01556,-0.002 c 1.65855,-0.31893 4.05855,-0.30682 5.33333,0.0269 1.27478,0.33373 -0.0822,0.59466 -3.01555,0.57987 -2.93333,-0.0148 -3.97633,-0.28785 -2.31778,-0.60677 z m -262.65834,-1.35663 c 2.39646,-0.29675 5.99646,-0.29063 8,0.0136 2.00353,0.30424 0.0428,0.54703 -4.35722,0.53955 -4.4,-0.007 -6.03925,-0.2564 -3.64278,-0.55315 z m 222.64279,0.002 c 2.38333,-0.29577 6.28333,-0.29577 8.66667,0 2.38333,0.29577 0.43333,0.53776 -4.33334,0.53776 -4.76666,0 -6.71666,-0.24199 -4.33333,-0.53776 z m -163.94775,-1.35736 c 4.61207,-0.26111 11.81207,-0.25895 16,0.005 4.18793,0.26375 0.41441,0.47738 -8.38559,0.47474 -8.8,-0.003 -12.22649,-0.21842 -7.61441,-0.47953 z m 99.28108,0.003 c 4.21667,-0.26461 11.11667,-0.26461 15.33334,0 4.21666,0.2646 0.76666,0.48109 -7.66667,0.48109 -8.43334,0 -11.88334,-0.21649 -7.66667,-0.48109 z"
         id="path510" /><path
         style="fill:#fe0000"
         d="M 231.33334,578.61157 C 161.84785,576.36944 105.44952,572.05677 81.333336,567.14138 48.353853,560.41946 22.865118,536.68833 14.231563,504.66668 -5.0507271,433.14913 -2.9975782,223.32978 17.521332,168.47224 25.57883,146.93043 47.469284,126.11622 69.804366,118.75971 125.53812,100.40265 492.00553,97.564439 592.83399,114.70895 c 41.09635,6.98788 66.03122,28.52706 75.76819,65.4499 17.78943,67.458 17.79627,253.39956 0.0119,323.5128 -4.34142,17.11566 -9.94127,26.97485 -22.60828,39.80454 -23.89427,24.20114 -45.62666,28.84817 -158.67244,33.92882 -41.22864,1.85295 -211.14887,2.65381 -256.00001,1.20656 z M 363.00001,392.68435 c 48.21667,-27.71918 87.64254,-50.76282 87.61306,-51.20809 -0.0295,-0.44527 -28.07949,-16.87362 -62.33334,-36.50745 -34.25385,-19.63383 -74.12972,-42.54256 -88.61305,-50.9083 l -26.33334,-15.21043 v 102.65366 c 0,56.45951 0.45,102.41188 1,102.11639 0.55,-0.29549 40.45,-23.21659 88.66667,-50.93578 z"
         id="path509" /></g><g
       id="g514"
       transform="matrix(0.93533141,0,0,0.93533141,-7.3986113,-16.673213)"
       style="fill:#140000;fill-opacity:1"><path
         style="fill:#140000;fill-opacity:1"
         d="m 23.737594,41.600679 c -8.474492,-0.718676 -13.474937,-9.69878 -9.600593,-17.241331 1.672908,-3.256807 5.019794,-5.699013 8.530322,-6.224532 0.9204,-0.137782 1.121561,-0.152175 2.058019,-0.147257 2.395033,0.01258 4.581746,0.681413 6.517868,1.993573 4.882252,3.308829 6.604751,9.599069 4.081946,14.906497 -2.09207,4.401255 -6.785464,7.12029 -11.587562,6.71305 z m 2.983783,-0.254792 c 7.429558,-1.332035 11.672223,-9.243634 8.687367,-16.199949 -1.597066,-3.72202 -4.98152,-6.318954 -9.076556,-6.964555 -0.786374,-0.123975 -2.722089,-0.108534 -3.535135,0.0282 -6.521171,1.096698 -10.85507,7.208942 -9.693479,13.671042 1.143354,6.360654 7.252019,10.606575 13.617803,9.465262 z m -2.951351,-0.84791 c -6.548509,-0.585343 -11.085062,-6.831971 -9.558894,-13.162165 1.623274,-6.732971 9.020106,-10.202811 15.201187,-7.130848 5.250175,2.609308 7.444028,8.975873 4.902883,14.228176 -1.934499,3.998421 -6.202405,6.453018 -10.545176,6.064837 z m 2.956198,-0.281349 c 4.813727,-1.003149 8.260359,-5.004281 8.529109,-9.901286 0.227187,-4.139686 -2.096165,-8.109811 -5.842064,-9.982865 -1.703477,-0.851786 -2.865164,-1.126201 -4.767567,-1.126201 -1.900082,0 -3.059324,0.273447 -4.767568,1.124595 -2.949782,1.469756 -4.991353,4.172388 -5.683532,7.52386 -0.31564,1.528301 -0.16803,3.689836 0.36127,5.290303 1.6655,5.036036 7.016986,8.145522 12.170352,7.071594 z m -2.569531,-0.118052 c -0.01825,-0.04755 -0.02514,-0.581591 -0.01533,-1.186768 l 0.01785,-1.10032 h 0.454054 0.454054 v 1.167567 1.167568 l -0.438728,0.0192 c -0.319729,0.01399 -0.447726,-0.0042 -0.471902,-0.06725 z m 0.845766,-1.119521 v -1.102703 h -0.356757 -0.356757 l -0.01793,1.035235 c -0.02192,1.265643 -0.03871,1.214473 0.39018,1.189802 l 0.341266,-0.01963 z M 24.029486,31.688254 C 23.500505,31.442817 23.15381,30.908592 23.15381,30.33892 v -0.309166 l -2.691892,-2.694715 -2.691892,-2.694714 v -0.301334 c 0,-0.524082 0.434498,-0.859399 0.95633,-0.738033 0.121939,0.02836 1.003983,0.875544 2.7734,2.663791 l 2.594594,2.622205 0.486487,-0.0046 0.486486,-0.0046 1.925669,-1.922281 c 1.275273,-1.273031 1.991287,-1.941459 2.119951,-1.97906 0.468324,-0.136864 0.916543,0.211936 0.916543,0.713247 v 0.309692 l -1.979162,1.985977 c -1.894162,1.900684 -1.977448,1.994543 -1.939267,2.185451 0.05654,0.282688 -0.135318,0.885474 -0.365143,1.147229 -0.407697,0.464342 -1.162715,0.62724 -1.716428,0.370327 z m 1.299704,-0.166639 c 0.458777,-0.268862 0.678674,-0.687283 0.678674,-1.291387 V 29.90076 l 1.941632,-1.947339 c 1.275481,-1.27923 1.95676,-2.00897 1.985726,-2.126976 0.09797,-0.399113 -0.209875,-0.760903 -0.647442,-0.760903 -0.252743,0 -0.304459,0.04558 -2.214821,1.952173 l -1.956036,1.952174 -0.511286,0.01599 -0.511287,0.01599 -2.662026,-2.649243 c -2.56371,-2.551398 -2.671072,-2.649242 -2.906967,-2.649242 -0.326202,0 -0.488476,0.09619 -0.595858,0.353188 -0.180614,0.432269 -0.153156,0.466102 2.661115,3.278944 2.480411,2.479151 2.628061,2.639748 2.628061,2.858497 0,1.174161 1.144192,1.893908 2.110515,1.327606 z M 14.447362,30.326086 c -0.04551,-0.01427 -0.104186,-0.05805 -0.130397,-0.0973 -0.07746,-0.115976 -0.05629,-0.719845 0.0282,-0.804328 0.10925,-0.10925 2.199939,-0.10925 2.309189,0 0.104609,0.104608 0.102002,0.80727 -0.0032,0.8741 -0.08133,0.05165 -2.048451,0.07622 -2.203745,0.02753 z m 2.142117,-0.476761 0.01945,-0.372973 h -1.10594 -1.10594 v 0.345946 c 0,0.190271 0.02016,0.366102 0.04479,0.390737 0.02463,0.02463 0.513554,0.0368 1.086486,0.02703 l 1.041696,-0.01776 z m 15.983081,0.0015 0.01909,-0.471745 1.094125,-0.01782 c 1.297316,-0.02113 1.286869,-0.02553 1.260054,0.530811 l -0.01904,0.395116 -1.186655,0.01769 -1.186656,0.01769 z m 2.243994,-0.0031 0.0195,-0.374556 -1.089771,0.0178 -1.08977,0.0178 -0.02031,0.283096 c -0.03474,0.484266 -0.07441,0.468177 1.105378,0.448247 l 1.055471,-0.01783 z M 24.207309,21.876879 c -0.05772,-0.05772 -0.08053,-0.388497 -0.08053,-1.167974 0,-1.232247 -0.0042,-1.222647 0.530871,-1.220748 0.457127,0.0016 0.447229,-0.02776 0.427429,1.268653 l -0.01776,1.162786 -0.389743,0.01891 c -0.247243,0.01199 -0.419187,-0.01054 -0.470271,-0.06162 z m 0.748162,-0.04421 c 0.06282,-0.03987 0.07844,-0.309015 0.06487,-1.117926 l -0.01788,-1.065416 h -0.356757 -0.356757 l -0.01776,1.082262 -0.01777,1.082261 0.21236,0.02628 c 0.374999,0.0464 0.405562,0.04594 0.489697,-0.0075 z"
         id="path516" /><path
         style="fill:#140000;fill-opacity:1"
         d="m 23.445702,41.477346 c -5.213415,-0.559863 -9.41924,-4.462554 -10.342128,-9.596721 -1.161591,-6.4621 3.172308,-12.574344 9.693479,-13.671042 0.813046,-0.136734 2.748761,-0.152175 3.535135,-0.0282 7.332695,1.156033 11.76012,8.428306 9.407091,15.45163 -1.152889,3.441142 -4.088683,6.282498 -7.623307,7.378081 -1.346793,0.417448 -3.304629,0.612907 -4.67027,0.466252 z m 2.737348,-0.124084 c 0.171215,-0.03202 0.515625,-0.09317 0.765354,-0.135875 0.523471,-0.08952 0.615842,-0.115184 1.491892,-0.414497 2.419424,-0.826624 4.511376,-2.457312 5.976275,-4.65854 0.823567,-1.237532 1.414798,-2.758766 1.707293,-4.392855 0.148656,-0.830505 0.188127,-2.952618 0.06669,-3.585463 -0.169269,-0.882099 -0.216755,-1.091482 -0.357461,-1.576166 -0.203021,-0.699337 -0.323639,-1.025543 -0.511935,-1.384495 -0.08713,-0.166095 -0.178867,-0.374964 -0.203863,-0.464154 -0.137663,-0.491188 -1.209447,-2.092326 -1.834487,-2.74054 -0.327174,-0.339304 -0.425185,-0.372353 -0.528997,-0.178379 -0.03819,0.07135 -0.112186,0.12973 -0.164444,0.12973 -0.05226,0 -0.09502,0.04135 -0.09502,0.09189 0,0.05054 -0.03405,0.103242 -0.07567,0.117114 -0.04228,0.01409 0.06709,0.182857 0.247889,0.382505 1.787584,1.973913 2.811562,4.658217 2.811562,7.370361 v 0.722707 l 0.209051,-0.190938 c 0.23636,-0.215882 0.266074,-0.224566 0.364126,-0.106421 0.121305,0.146163 -0.136453,0.484471 -0.407921,0.535398 -0.207106,0.03885 -0.230121,0.0641 -0.230121,0.252418 0,0.345672 -0.424681,1.92247 -0.712196,2.644314 -1.008763,2.532629 -2.95146,4.609459 -5.417533,5.791586 -0.969728,0.464844 -2.706839,0.991913 -3.330076,1.010401 -0.09494,0.0028 -0.133654,0.02067 -0.08602,0.03968 0.05929,0.02366 0.002,0.115892 -0.181749,0.292417 -0.358694,0.344666 -0.620309,0.250258 -0.355233,-0.12819 l 0.100975,-0.144163 -0.668543,-5.23e-4 c -2.729765,-0.0021 -5.431113,-1.037539 -7.396958,-2.835186 -0.305036,-0.278937 -0.458388,-0.296964 -0.633747,-0.0745 -0.01784,0.02263 -0.08839,0.05182 -0.156787,0.06486 -0.206971,0.03948 -0.18764,0.163256 0.07004,0.448478 0.74492,0.824537 2.9082,2.228845 3.196097,2.074767 0.07858,-0.04206 0.129506,-0.02415 0.185271,0.06514 0.144907,0.232033 1.193188,0.621298 2.154028,0.799868 0.303243,0.05636 0.682703,0.129266 0.843243,0.162018 0.383883,0.07832 2.760399,0.08977 3.15897,0.01522 z m -0.08248,-0.923109 c 3.478464,-0.445504 6.648335,-2.75964 8.214627,-5.997013 2.541145,-5.252303 0.347292,-11.618868 -4.902883,-14.228176 -5.128023,-2.548599 -11.338107,-0.624745 -14.131463,4.377859 -4.292941,7.688203 2.044969,16.971156 10.819719,15.84733 z M 24.286503,40.03392 c -0.01838,-0.0479 -0.02535,-0.552955 -0.01549,-1.122333 l 0.01793,-1.035235 h 0.356757 0.356757 v 1.102703 1.102703 l -0.341266,0.01963 c -0.24024,0.01382 -0.351161,-0.0062 -0.37469,-0.06747 z m 0.668954,-1.071081 -0.01786,-1.021622 -0.308108,-0.01977 -0.308109,-0.01977 v 1.041392 1.041392 h 0.325972 0.325971 z m -0.749859,-7.294111 c -0.563083,-0.190008 -0.986923,-0.823336 -0.986923,-1.474719 0,-0.218749 -0.14765,-0.379346 -2.628061,-2.858497 -2.814271,-2.812842 -2.841729,-2.846675 -2.661115,-3.278944 0.107382,-0.257002 0.269656,-0.353188 0.595858,-0.353188 0.235895,0 0.343257,0.09784 2.906967,2.649242 l 2.662026,2.649243 0.511287,-0.01599 0.511286,-0.01599 1.956036,-1.952174 c 1.910362,-1.90659 1.962078,-1.952173 2.214821,-1.952173 0.437567,0 0.74541,0.36179 0.647442,0.760903 -0.02897,0.118006 -0.710245,0.847746 -1.985726,2.126976 l -1.941632,1.947339 v 0.329468 c 0,0.604104 -0.219897,1.022525 -0.678674,1.291387 -0.322151,0.188792 -0.810567,0.252741 -1.123592,0.147113 z m 0.728828,-0.05885 c 0.605251,-0.168037 0.966942,-0.666936 0.958943,-1.322716 l -0.0047,-0.389189 1.937297,-1.945946 c 1.065514,-1.07027 1.968794,-2.030156 2.007291,-2.13308 0.05637,-0.150706 0.04851,-0.220152 -0.04037,-0.356756 -0.184328,-0.283304 -0.476868,-0.442559 -0.476868,-0.259602 0,0.102089 -0.817747,0.883955 -0.977576,0.934683 -0.07291,0.02314 -0.159609,0.113221 -0.192671,0.20018 -0.04648,0.122265 -0.09343,0.149919 -0.207095,0.121988 -0.21085,-0.05181 -2.291141,2.022761 -2.227957,2.221836 0.04081,0.128577 -0.32764,0.535616 -0.484835,0.535616 -0.0352,0 -0.0987,0.08027 -0.141116,0.178378 -0.08613,0.199237 -1.044656,1.183784 -1.152492,1.183784 -0.03794,0 -0.08578,0.04378 -0.106315,0.0973 -0.04798,0.125025 -0.179576,0.124518 -0.283823,-0.0011 -0.09917,-0.119496 0.696538,-0.939447 0.911675,-0.939447 0.07723,0 0.127636,-0.04453 0.128512,-0.113514 7.94e-4,-0.06243 0.05852,-0.186486 0.128288,-0.275675 0.187647,-0.239893 0.167175,-0.25946 -0.271474,-0.25946 H 24.037889 L 22.91348,27.969389 c -0.991028,-0.985181 -1.137721,-1.108069 -1.236634,-1.035955 -0.06172,0.045 -0.163306,0.09897 -0.225739,0.119935 -0.06243,0.02096 -0.113513,0.07941 -0.113513,0.129882 0,0.05047 -0.0446,0.10888 -0.0991,0.129796 -0.0545,0.02091 -0.130335,0.09639 -0.168514,0.16773 -0.06161,0.115112 0.06265,0.262468 1.104505,1.309867 1.167847,1.174059 1.173921,1.181652 1.174281,1.468071 8.13e-4,0.646929 0.346904,1.148465 0.914684,1.32551 0.35733,0.111423 0.361478,0.111581 0.670976,0.02565 z m -3.611013,-4.853716 c 0.04571,-0.0023 0.101004,-0.05075 0.122867,-0.107721 0.05165,-0.134608 -2.609324,-2.815333 -2.794594,-2.815333 -0.0687,0 -0.105035,0.01987 -0.08075,0.04415 0.05675,0.05675 -0.279417,0.409902 -0.390186,0.409902 -0.04616,0 -0.103181,0.07672 -0.126716,0.170488 -0.03891,0.155019 0.08127,0.294155 1.324497,1.533398 l 1.367286,1.362909 0.247241,-0.29683 c 0.135982,-0.163256 0.284643,-0.29869 0.330357,-0.300965 z m -6.881569,3.456872 c -0.02463,-0.02463 -0.04479,-0.200466 -0.04479,-0.390737 v -0.345946 h 1.10594 1.10594 l -0.01945,0.372973 -0.01945,0.372973 -1.041696,0.01776 c -0.572932,0.0098 -1.061851,-0.0024 -1.086486,-0.02703 z m 2.083087,-0.373098 0.01977,-0.29872 H 15.50331 14.461918 v 0.281081 c 0,0.154595 0.0122,0.293244 0.02712,0.308109 0.01492,0.01486 0.474646,0.0228 1.021621,0.01764 l 0.9945,-0.0094 z m 16.126073,0.326531 c -0.01931,-0.05032 -0.02597,-0.218884 -0.0148,-0.374587 l 0.02031,-0.283096 1.08977,-0.0178 1.089771,-0.0178 -0.0195,0.374556 -0.0195,0.374556 -1.055471,0.01783 c -0.860555,0.01454 -1.061954,9.34e-4 -1.090578,-0.07366 z m 2.113617,-0.333359 V 29.541217 H 33.759215 32.75381 v 0.291892 0.291892 h 1.005405 1.005406 z m -10.298847,-7.992984 -0.21236,-0.02628 0.01777,-1.082261 0.01776,-1.082262 h 0.356757 0.356757 l 0.01788,1.065416 c 0.02101,1.252018 0.04675,1.199788 -0.554562,1.125384 z m 0.503366,-0.978411 c -0.0011,-1.148995 -0.0013,-1.14939 -0.342926,-1.140181 l -0.272404,0.0073 -0.01784,1.01047 -0.01784,1.01047 0.277303,0.02049 c 0.152517,0.01127 0.299196,0.01126 0.325952,-1.9e-5 0.02676,-0.01128 0.04825,-0.420133 0.04776,-0.908568 z m -8.262293,16.763084 c 0.0039,-0.0043 0.0255,-0.08481 0.04801,-0.178815 0.0338,-0.141195 -0.02015,-0.245409 -0.310316,-0.599411 -1.832921,-2.236132 -2.737535,-4.824995 -2.612279,-7.475928 0.02085,-0.44132 0.02629,-0.8024 0.01209,-0.8024 -0.01421,0 -0.09503,0.07463 -0.179612,0.16585 -0.136291,0.146983 -0.163265,0.154427 -0.237122,0.06544 -0.07039,-0.08482 -0.05034,-0.131244 0.129092,-0.298854 0.160911,-0.150313 0.225405,-0.17798 0.265936,-0.114083 0.03535,0.05573 0.05384,0.02127 0.0545,-0.101534 5.46e-4,-0.102239 0.04428,-0.321158 0.09719,-0.486486 0.05291,-0.165329 0.198873,-0.656479 0.324368,-1.091446 1.043673,-3.617396 4.223828,-6.634424 7.817274,-7.416288 0.196216,-0.04269 0.473514,-0.115905 0.616216,-0.162693 0.395155,-0.129559 2.189357,-0.187731 2.970322,-0.09631 2.182514,0.255504 4.155713,1.083887 5.832162,2.448445 0.274932,0.223783 0.511014,0.406878 0.524625,0.406878 0.01361,0 0.149523,-0.118695 0.302026,-0.263767 L 32.6386,21.359629 32.485394,21.194133 C 32.048765,20.72248 30.600761,19.739365 29.715099,19.313257 28.05293,18.513555 26.59995,18.192256 24.645702,18.192256 c -1.551507,0 -2.453454,0.135682 -3.691623,0.555339 -3.699439,1.253865 -6.651803,4.416887 -7.592424,8.134163 -0.459719,1.816783 -0.450373,4.114929 0.02407,5.919724 0.132409,0.503684 0.413953,1.28231 0.524896,1.45163 0.05348,0.08162 0.09724,0.192954 0.09724,0.247402 0,0.324977 1.036952,1.985013 1.775853,2.842929 l 0.323149,0.375198 0.296445,-0.04297 c 0.163045,-0.02363 0.299636,-0.04653 0.303536,-0.05087 z M 13.229486,28.925 c 0,-0.05351 0.01147,-0.0973 0.02549,-0.0973 0.01402,0 0.04229,0.04378 0.06283,0.0973 0.02054,0.05351 0.0091,0.0973 -0.02549,0.0973 -0.03456,0 -0.06283,-0.04378 -0.06283,-0.0973 z m 9.930038,-10.07027 c 0.226166,-0.296923 0.455524,-0.478212 0.619785,-0.48989 0.313125,-0.02226 0.254262,0.164672 -0.124053,0.393955 -0.392905,0.238125 -0.640542,0.286048 -0.495732,0.09594 z"
         id="path515" /><path
         style="fill:#140000;fill-opacity:1"
         d="m 23.02408,41.338044 c -0.16054,-0.03275 -0.54,-0.10566 -0.843243,-0.162018 -0.96084,-0.17857 -2.009121,-0.567835 -2.154028,-0.799868 -0.05577,-0.08929 -0.106689,-0.1072 -0.185271,-0.06514 -0.287897,0.154078 -2.451177,-1.25023 -3.196097,-2.074767 -0.25768,-0.285222 -0.277011,-0.409 -0.07004,-0.448478 0.06839,-0.01305 0.138949,-0.04223 0.156787,-0.06486 0.175359,-0.222467 0.328711,-0.20444 0.633747,0.0745 1.965845,1.797647 4.667193,2.833049 7.396958,2.835186 l 0.668543,5.23e-4 -0.100975,0.144163 c -0.265076,0.378448 -0.0035,0.472856 0.355233,0.12819 0.183711,-0.176525 0.241037,-0.268759 0.181749,-0.292417 -0.04763,-0.01901 -0.0089,-0.03686 0.08602,-0.03968 0.623237,-0.01849 2.360348,-0.545557 3.330076,-1.010401 2.466073,-1.182127 4.40877,-3.258957 5.417533,-5.791586 0.287515,-0.721844 0.712196,-2.298642 0.712196,-2.644314 0,-0.188319 0.02302,-0.213564 0.230121,-0.252418 0.271468,-0.05093 0.529226,-0.389235 0.407921,-0.535398 -0.09805,-0.118145 -0.127766,-0.109461 -0.364126,0.106421 L 35.478133,30.63662 V 29.9139 c 0,-2.712144 -1.023978,-5.396448 -2.811562,-7.370361 -0.180802,-0.199648 -0.290172,-0.36841 -0.247889,-0.382505 0.04162,-0.01387 0.07567,-0.06657 0.07567,-0.117114 0,-0.05054 0.04276,-0.09189 0.09502,-0.09189 0.05226,0 0.126258,-0.05838 0.164444,-0.12973 0.103812,-0.193974 0.201823,-0.160925 0.528997,0.178379 0.62504,0.648214 1.696824,2.249352 1.834487,2.74054 0.025,0.08919 0.116735,0.298059 0.203863,0.464154 0.188296,0.358952 0.308914,0.685158 0.511935,1.384495 0.140706,0.484684 0.188192,0.694067 0.357461,1.576166 0.204917,1.067874 0.03484,3.521375 -0.331396,4.780591 -1.085652,3.732775 -3.817682,6.625882 -7.418861,7.856267 -0.87605,0.299313 -0.968421,0.324977 -1.491892,0.414497 -0.249729,0.04271 -0.594139,0.103851 -0.765354,0.135875 -0.398571,0.07455 -2.775087,0.0631 -3.15897,-0.01522 z m 1.297297,-2.394975 v -1.041392 l 0.308109,0.01977 0.308108,0.01977 0.01786,1.021622 0.01786,1.021622 h -0.325971 -0.325972 z m -8.53766,-1.599626 c -0.738901,-0.857916 -1.775853,-2.517952 -1.775853,-2.842929 0,-0.05445 -0.04376,-0.165779 -0.09724,-0.247402 -0.682309,-1.041335 -1.095002,-4.392806 -0.773902,-6.284839 0.653755,-3.852156 3.030393,-7.002437 6.579249,-8.720928 1.540525,-0.74598 2.984782,-1.055089 4.92973,-1.055089 1.954248,0 3.407228,0.321299 5.069397,1.121001 0.885662,0.426108 2.333666,1.409223 2.770295,1.880876 l 0.153206,0.165496 -0.277277,0.263767 c -0.152503,0.145072 -0.288414,0.263767 -0.302026,0.263767 -0.01361,0 -0.249693,-0.183095 -0.524625,-0.406878 -1.676449,-1.364558 -3.649648,-2.192941 -5.832162,-2.448445 -0.780965,-0.09143 -2.575167,-0.03325 -2.970322,0.09631 -0.142702,0.04679 -0.42,0.12 -0.616216,0.162693 -3.593446,0.781864 -6.773601,3.798892 -7.817274,7.416288 -0.125495,0.434967 -0.27146,0.926117 -0.324368,1.091446 -0.05291,0.165328 -0.09664,0.384247 -0.09719,0.486486 -6.56e-4,0.122802 -0.01915,0.157261 -0.0545,0.101534 -0.04053,-0.0639 -0.105025,-0.03623 -0.265936,0.114083 -0.179428,0.16761 -0.199482,0.214038 -0.129092,0.298854 0.07386,0.08899 0.100831,0.08155 0.237122,-0.06544 0.08458,-0.09122 0.165407,-0.16585 0.179612,-0.16585 0.0142,0 0.0088,0.36108 -0.01209,0.8024 -0.125256,2.650933 0.779358,5.239796 2.612279,7.475928 0.290169,0.354002 0.344121,0.458216 0.310316,0.599411 -0.02251,0.094 -0.04411,0.174467 -0.04801,0.178815 -0.0039,0.0043 -0.140491,0.02724 -0.303536,0.05087 l -0.296445,0.04297 z m -2.46591,-8.418442 c -0.02054,-0.05351 -0.04881,-0.0973 -0.06283,-0.0973 -0.01402,0 -0.02549,0.04378 -0.02549,0.0973 0,0.05351 0.02827,0.0973 0.06283,0.0973 0.03456,0 0.04603,-0.04378 0.02549,-0.0973 z M 23.655256,18.758796 c 0.378315,-0.229283 0.437178,-0.416216 0.124053,-0.393955 -0.164261,0.01168 -0.393619,0.192967 -0.619785,0.48989 -0.14481,0.190113 0.102827,0.14219 0.495732,-0.09594 z m 0.608194,12.825429 c -0.56778,-0.177045 -0.913871,-0.678581 -0.914684,-1.32551 -3.6e-4,-0.286419 -0.0064,-0.294012 -1.174281,-1.468071 -1.041857,-1.047399 -1.16611,-1.194755 -1.104505,-1.309867 0.03818,-0.07134 0.11401,-0.146815 0.168514,-0.16773 0.0545,-0.02092 0.0991,-0.07932 0.0991,-0.129796 0,-0.05047 0.05108,-0.108919 0.113513,-0.129882 0.06243,-0.02096 0.164015,-0.07493 0.225739,-0.119935 0.09891,-0.07211 0.245606,0.05077 1.236634,1.035955 l 1.124409,1.117774 h 0.401204 c 0.438649,0 0.459121,0.01957 0.271474,0.25946 -0.06977,0.08919 -0.127494,0.213243 -0.128288,0.275675 -8.76e-4,0.06899 -0.05129,0.113514 -0.128512,0.113514 -0.215137,0 -1.010848,0.819951 -0.911675,0.939447 0.104247,0.125611 0.235847,0.126118 0.283823,0.0011 0.02054,-0.05351 0.06838,-0.0973 0.106315,-0.0973 0.107836,0 1.066358,-0.984547 1.152492,-1.183784 0.04242,-0.09811 0.105917,-0.178378 0.141116,-0.178378 0.157195,0 0.525643,-0.407039 0.484835,-0.535616 -0.06318,-0.199075 2.017107,-2.27365 2.227957,-2.221836 0.113662,0.02793 0.160611,2.77e-4 0.207095,-0.121988 0.03306,-0.08696 0.119764,-0.17704 0.192671,-0.20018 0.159829,-0.05073 0.977576,-0.832594 0.977576,-0.934683 0,-0.182957 0.29254,-0.0237 0.476868,0.259602 0.08888,0.136604 0.09674,0.20605 0.04037,0.356756 -0.0385,0.102924 -0.941777,1.06281 -2.007291,2.13308 l -1.937297,1.945946 0.0047,0.389189 c 0.008,0.65578 -0.353692,1.154679 -0.958943,1.322716 -0.309498,0.08593 -0.313646,0.08577 -0.670976,-0.02565 z m -9.77441,-1.453818 c -0.01492,-0.01487 -0.02712,-0.153514 -0.02712,-0.308109 v -0.281081 h 1.041392 1.041392 l -0.01977,0.29872 -0.01977,0.29872 -0.9945,0.0094 c -0.546975,0.0052 -1.006704,-0.0028 -1.021621,-0.01764 z m 18.26477,-0.297298 v -0.291892 h 1.005405 1.005406 v 0.291892 0.291892 H 33.759215 32.75381 Z m -13.375281,-3.84206 c -1.243223,-1.239243 -1.363404,-1.378379 -1.324497,-1.533398 0.02353,-0.09377 0.08056,-0.170488 0.126716,-0.170488 0.110769,0 0.446936,-0.353153 0.390186,-0.409902 -0.02428,-0.02428 0.01206,-0.04415 0.08075,-0.04415 0.18527,0 2.846248,2.680725 2.794594,2.815333 -0.02186,0.05697 -0.07715,0.105447 -0.122867,0.107721 -0.04571,0.0023 -0.194375,0.137709 -0.330357,0.300965 l -0.247241,0.29683 z m 5.216896,-4.220748 -0.277303,-0.02049 0.01784,-1.01047 0.01784,-1.01047 0.272404,-0.0073 c 0.221031,-0.006 0.278971,0.01712 0.307223,0.122387 0.05363,0.199821 0.04297,1.90317 -0.01206,1.926362 -0.02676,0.01128 -0.173435,0.01129 -0.325952,1.9e-5 z"
         id="path514" /></g></g></svg>
